<svg width="49" height="33" viewBox="0 0 49 33" fill="none" xmlns="http://www.w3.org/2000/svg">
<path d="M0.69 18.1719C-0.23 17.2419 -0.23 15.7419 0.69 14.8119L12.48 3.03191C13.36 2.05191 14.87 1.98191 15.84 2.86191C16.82 3.74191 16.89 5.25191 16.01 6.22191C15.96 6.28191 15.9 6.33191 15.84 6.39191L5.74 16.4919L15.85 26.6019C16.77 27.5319 16.77 29.0319 15.85 29.9619C15.4 30.4119 14.79 30.6619 14.16 30.6619C13.52 30.6619 12.91 30.4119 12.46 29.9619L0.69 18.1719ZM32.84 26.6019L42.98 16.4919L32.87 6.38191C31.94 5.44191 31.95 3.93191 32.89 3.00191C33.83 2.07191 35.34 2.08191 36.27 3.02191L48.06 14.8119C48.98 15.7419 48.98 17.2419 48.06 18.1719L36.27 29.9619C35.83 30.4119 35.22 30.6619 34.59 30.6619C33.96 30.6619 33.35 30.4119 32.9 29.9619C31.97 29.0419 31.96 27.5419 32.88 26.6019H32.84ZM18.41 29.4919L24.57 2.43191C24.86 1.15191 26.14 0.351909 27.42 0.641909C28.7 0.931909 29.5 2.21191 29.21 3.49191L23.03 30.5519C22.79 31.6319 21.83 32.4019 20.72 32.4119C20.54 32.4319 20.36 32.4319 20.18 32.4119C18.9 32.1219 18.1 30.8419 18.39 29.5619C18.4 29.5419 18.4 29.5219 18.41 29.4919Z" fill="#F3EFEC"/>
</svg>
