<svg width="86" height="90" viewBox="0 0 86 90" fill="none" xmlns="http://www.w3.org/2000/svg">
<rect x="0.5" y="0.5" width="85" height="88.0205" rx="4.5" fill="#1E1E1E" stroke="#787878"/>
<path d="M39.0444 52.6613C39.0444 50.1523 39.3463 48.1541 39.9501 46.6667C40.5538 45.1792 41.6548 43.7186 43.2531 42.2849C44.869 40.8333 45.9434 39.6595 46.4761 38.7634C47.0089 37.8495 47.2752 36.8907 47.2752 35.8871C47.2752 32.8584 45.8901 31.3441 43.1199 31.3441C41.8058 31.3441 40.7492 31.7563 39.9501 32.5806C39.1687 33.3871 38.7603 34.5072 38.7248 35.9409H31C31.0355 32.5179 32.1276 29.8387 34.2764 27.9032C36.4428 25.9677 39.3907 25 43.1199 25C46.8846 25 49.8058 25.9229 51.8835 27.7688C53.9612 29.5968 55 32.1864 55 35.5376C55 37.0609 54.6626 38.5036 53.9878 39.8656C53.313 41.2097 52.1321 42.7061 50.4451 44.3548L48.2875 46.4247C46.9378 47.733 46.1654 49.2652 45.97 51.0215L45.8635 52.6613H39.0444ZM38.2719 60.914C38.2719 59.7133 38.6715 58.7276 39.4706 57.957C40.2875 57.1685 41.3263 56.7742 42.5871 56.7742C43.8479 56.7742 44.8779 57.1685 45.677 57.957C46.4939 58.7276 46.9023 59.7133 46.9023 60.914C46.9023 62.0968 46.5028 63.0735 45.7037 63.8441C44.9223 64.6147 43.8835 65 42.5871 65C41.2908 65 40.2431 64.6147 39.444 63.8441C38.6626 63.0735 38.2719 62.0968 38.2719 60.914Z" fill="white"/>
</svg>
