<svg width="50" height="33" viewBox="0 0 50 33" fill="none" xmlns="http://www.w3.org/2000/svg">
<rect x="26.3605" width="5" height="32.0469" rx="2.5" transform="rotate(13.2781 26.3605 0)" fill="#386EE6"/>
<path fill-rule="evenodd" clip-rule="evenodd" d="M49.2211 16.5499C49.3337 15.7958 49.1011 14.9997 48.5225 14.4171L36.5433 2.35481C35.5704 1.37513 33.9875 1.36966 33.0078 2.34259C32.0281 3.31552 32.0226 4.89843 32.9956 5.8781L43.2132 16.1666L32.9247 26.3842C31.945 27.3571 31.9395 28.94 32.9125 29.9197C33.8854 30.8994 35.4683 30.9049 36.448 29.9319L48.5103 17.9527C48.9073 17.5584 49.1444 17.0639 49.2211 16.5499Z" fill="white"/>
<path fill-rule="evenodd" clip-rule="evenodd" d="M0.0275784 16.5143C-0.0850525 15.7601 0.147512 14.9641 0.726156 14.3814L12.7054 2.31916C13.6783 1.33948 15.2612 1.33401 16.2409 2.30695C17.2206 3.27988 17.226 4.86278 16.2531 5.84246L6.03548 16.1309L16.324 26.3486C17.3036 27.3215 17.3091 28.9044 16.3362 29.8841C15.3632 30.8637 13.7803 30.8692 12.8007 29.8963L0.73839 17.9171C0.341337 17.5228 0.104307 17.0282 0.0275784 16.5143Z" fill="white"/>
</svg>
