<svg width="86" height="90" viewBox="0 0 86 90" fill="none" xmlns="http://www.w3.org/2000/svg">
<rect x="0.5" y="0.5" width="85" height="88.0205" rx="4.5" fill="#1E1E1E" stroke="#787878"/>
<path d="M19.69 46.1719C18.77 45.2419 18.77 43.7419 19.69 42.8119L31.48 31.0319C32.36 30.0519 33.87 29.9819 34.84 30.8619C35.82 31.7419 35.89 33.2519 35.01 34.2219C34.96 34.2819 34.9 34.3319 34.84 34.3919L24.74 44.4919L34.85 54.6019C35.77 55.5319 35.77 57.0319 34.85 57.9619C34.4 58.4119 33.79 58.6619 33.16 58.6619C32.52 58.6619 31.91 58.4119 31.46 57.9619L19.69 46.1719ZM51.84 54.6019L61.98 44.4919L51.87 34.3819C50.94 33.4419 50.95 31.9319 51.89 31.0019C52.83 30.0719 54.34 30.0819 55.27 31.0219L67.06 42.8119C67.98 43.7419 67.98 45.2419 67.06 46.1719L55.27 57.9619C54.83 58.4119 54.22 58.6619 53.59 58.6619C52.96 58.6619 52.35 58.4119 51.9 57.9619C50.97 57.0419 50.96 55.5419 51.88 54.6019H51.84ZM37.41 57.4919L43.57 30.4319C43.86 29.1519 45.14 28.3519 46.42 28.6419C47.7 28.9319 48.5 30.2119 48.21 31.4919L42.03 58.5519C41.79 59.6319 40.83 60.4019 39.72 60.4119C39.54 60.4319 39.36 60.4319 39.18 60.4119C37.9 60.1219 37.1 58.8419 37.39 57.5619C37.4 57.5419 37.4 57.5219 37.41 57.4919Z" fill="#F3EFEC"/>
<rect x="43.4114" y="27.407" width="5.80286" height="33.9928" rx="2.90143" transform="rotate(12.5933 43.4114 27.407)" fill="#386EE6"/>
</svg>
