<svg width="86" height="90" viewBox="0 0 86 90" fill="none" xmlns="http://www.w3.org/2000/svg">
<rect x="0.5" y="0.871338" width="85" height="88.0204" rx="4.5" fill="#1E1E1E" stroke="#787878"/>
<path d="M48.1006 67.2407H37.0555C35.9477 67.2407 35.0463 66.3392 35.0463 65.2314C35.0463 64.1236 35.9477 63.2222 37.0555 63.2222H48.1006C49.2084 63.2222 50.1099 64.1236 50.1099 65.2314C50.1112 66.3392 49.2084 67.2407 48.1006 67.2407ZM37.0555 64.142C36.455 64.142 35.9661 64.6309 35.9661 65.2314C35.9661 65.832 36.455 66.3208 37.0555 66.3208H48.1006C48.7012 66.3208 49.19 65.832 49.19 65.2314C49.19 64.6309 48.7012 64.142 48.1006 64.142H37.0555Z" fill="white"/>
<path d="M42.5814 75.1083C41.0387 75.1083 39.7324 74.0778 39.3513 72.6096C37.3683 72.3217 35.8624 70.6209 35.8624 68.5914V68.1313H49.2926V68.5914C49.2926 70.6182 47.7906 72.3191 45.8115 72.6096C45.4317 74.0778 44.1255 75.1083 42.5814 75.1083ZM36.8164 69.0514C37.0319 70.5012 38.2475 71.6395 39.76 71.7276L40.1332 71.7486L40.1884 72.118C40.3698 73.318 41.3764 74.1882 42.5814 74.1882C43.7878 74.1882 44.7944 73.318 44.9744 72.118L45.0296 71.7486L45.4015 71.7263C46.9101 71.6369 48.123 70.4986 48.3386 69.0501H36.8164V69.0514Z" fill="white"/>
<path d="M49.8392 61.3003H35.2355V56.0085C33.8307 53.6346 32.192 51.2411 30.4889 49.0815C28.3351 46.3489 27.1971 43.0668 27.1971 39.5915C27.1971 31.1083 34.0975 24.2063 42.5788 24.2063C51.06 24.2063 57.9591 31.1083 57.9591 39.5915C57.9591 43.0694 56.8198 46.3515 54.6659 49.0842C53.1311 51.0321 51.332 53.6623 49.8379 56.1425V61.3003H49.8392ZM36.1554 60.3802H48.9193V55.8862L48.985 55.7771C50.5107 53.2338 52.3649 50.5182 53.9445 48.5137C55.9695 45.9453 57.0405 42.8604 57.0405 39.5915C57.0405 31.6156 50.5541 25.1264 42.5801 25.1264C34.606 25.1264 28.1183 31.6156 28.1183 39.5915C28.1183 42.8578 29.188 45.9427 31.213 48.5111C32.966 50.7364 34.6533 53.2048 36.0923 55.6496L36.1554 55.7574V60.3802Z" fill="white" stroke="white"/>
<path d="M37.6523 44.4345L36.6254 44.6595L40.118 60.6058L41.1449 60.3808L37.6523 44.4345Z" fill="white"/>
<path d="M47.5197 44.4532L44.0283 60.7449L44.9277 60.9377L48.4192 44.6461L47.5197 44.4532Z" fill="white"/>
<path d="M45.2438 71.7485H40.0754V72.6684H45.2438V71.7485Z" fill="white"/>
<path d="M41.7575 50.0293L40.8376 46.5014L38.3382 48.1747L37.9728 47.6292L41.241 45.442L41.8981 47.9604L43.5841 43.8542L44.9757 47.8237L47.4371 46.6973L47.7104 47.2953L44.5933 48.7202L43.5355 45.7023L41.7575 50.0293Z" fill="#3977FF"/>
<path d="M43.1543 20.998C42.9362 20.998 42.7601 20.8219 42.7601 20.6037V13.7688C42.7601 13.5506 42.9362 13.3745 43.1543 13.3745C43.3725 13.3745 43.5486 13.5506 43.5486 13.7688V20.6037C43.5486 20.8219 43.3725 20.998 43.1543 20.998Z" fill="#3977FF" stroke="#3977FF"/>
<path d="M53.6251 23.5564C53.5555 23.5564 53.4845 23.538 53.4214 23.4986C53.2348 23.3855 53.1757 23.1437 53.2887 22.957L56.8303 17.1117C56.9433 16.9251 57.1851 16.8659 57.3717 16.979C57.5583 17.092 57.6174 17.3339 57.5044 17.5205L53.9629 23.3658C53.8893 23.4894 53.7592 23.5564 53.6251 23.5564Z" fill="#3977FF" stroke="#3977FF"/>
<path d="M60.1327 31.8068C59.9908 31.8068 59.8528 31.7293 59.7831 31.5953C59.6819 31.4021 59.7568 31.1642 59.95 31.063L66.0081 27.9013C66.2012 27.8001 66.4391 27.875 66.5403 28.0682C66.6415 28.2614 66.5666 28.4992 66.3734 28.6004L60.3153 31.7621C60.2562 31.7924 60.1931 31.8068 60.1327 31.8068Z" fill="#3977FF" stroke="#3977FF"/>
<path d="M68.9215 41.5472C68.9136 41.5472 68.9044 41.5472 68.8965 41.5459L62.0776 41.1109C61.8607 41.0964 61.6952 40.9098 61.7096 40.6917C61.7241 40.4749 61.9107 40.3106 62.1288 40.3237L68.9477 40.7587C69.1646 40.7732 69.3301 40.9598 69.3157 41.1779C69.3012 41.3869 69.1278 41.5472 68.9215 41.5472Z" fill="#3977FF" stroke="#3977FF"/>
<path d="M64.5705 55.3109C64.4929 55.3109 64.4141 55.2886 64.3457 55.24L58.7397 51.3331C58.561 51.2083 58.5177 50.9625 58.6412 50.7838C58.766 50.6051 59.0118 50.5617 59.1905 50.6853L64.7965 54.5921C64.9752 54.7169 65.0186 54.9627 64.895 55.1414C64.8175 55.2518 64.6953 55.3109 64.5705 55.3109Z" fill="#3977FF" stroke="#3977FF"/>
<path d="M31.6888 23.5564C31.556 23.5564 31.4259 23.4894 31.351 23.3658L27.8095 17.5205C27.6965 17.3339 27.7556 17.092 27.9422 16.979C28.1288 16.8659 28.3706 16.9251 28.4836 17.1117L32.0252 22.957C32.1382 23.1437 32.0791 23.3855 31.8925 23.4986C31.8294 23.538 31.7584 23.5564 31.6888 23.5564Z" fill="#3977FF" stroke="#3977FF"/>
<path d="M25.1826 31.8068C25.1208 31.8068 25.0591 31.7924 24.9999 31.7621L18.9419 28.6004C18.7487 28.4992 18.6738 28.2614 18.775 28.0682C18.8762 27.875 19.114 27.8001 19.3072 27.9013L25.3653 31.063C25.5584 31.1642 25.6334 31.4021 25.5322 31.5953C25.4625 31.7293 25.3245 31.8068 25.1826 31.8068Z" fill="#3977FF" stroke="#3977FF"/>
<path d="M16.3938 41.5472C16.1875 41.5472 16.014 41.3869 16.0009 41.1779C15.9864 40.9611 16.152 40.7732 16.3688 40.7587L23.1878 40.3237C23.4059 40.3106 23.5925 40.4749 23.607 40.6917C23.6214 40.9085 23.4558 41.0964 23.239 41.1109L16.4201 41.5459C16.4109 41.5472 16.4017 41.5472 16.3938 41.5472Z" fill="#3977FF" stroke="#3977FF"/>
<path d="M20.7448 55.312C20.62 55.312 20.4978 55.2529 20.4215 55.1424C20.2967 54.9637 20.3414 54.7179 20.5201 54.593L26.1261 50.6851C26.3048 50.5602 26.5505 50.6049 26.6754 50.7837C26.8002 50.9625 26.7555 51.2083 26.5768 51.3331L20.9708 55.241C20.9012 55.2897 20.8223 55.312 20.7448 55.312Z" fill="#3977FF" stroke="#3977FF"/>
</svg>
