<svg width="86" height="90" viewBox="0 0 86 90" fill="none" xmlns="http://www.w3.org/2000/svg">
<rect x="0.5" y="0.969971" width="85" height="88.0205" rx="4.5" fill="#1E1E1E" stroke="#787878"/>
<path d="M42.3942 75.1089C42.1761 75.1089 42 74.9328 42 74.7146V67.8797C42 67.6615 42.1761 67.4854 42.3942 67.4854C42.6124 67.4854 42.7885 67.6615 42.7885 67.8797V74.7146C42.7885 74.9328 42.6124 75.1089 42.3942 75.1089Z" fill="#3977FF" stroke="#3977FF"/>
<path d="M36.3942 78.1096C36.1761 78.1096 36 77.9335 36 77.7153V70.8804C36 70.6622 36.1761 70.4861 36.3942 70.4861C36.6124 70.4861 36.7885 70.6622 36.7885 70.8804V77.7153C36.7885 77.9335 36.6124 78.1096 36.3942 78.1096Z" fill="#3977FF" stroke="#3977FF"/>
<path d="M48.3942 78.1096C48.1761 78.1096 48 77.9335 48 77.7153V70.8804C48 70.6622 48.1761 70.4861 48.3942 70.4861C48.6124 70.4861 48.7885 70.6622 48.7885 70.8804V77.7153C48.7885 77.9335 48.6124 78.1096 48.3942 78.1096Z" fill="#3977FF" stroke="#3977FF"/>
<path d="M35.4107 25.8667L35.4149 25.8566L35.4188 25.8464C36.58 22.8279 38.938 19.5975 42.4601 16.0166C45.6324 19.2188 47.8834 22.5331 49.3554 25.8291C50.8518 29.1796 51.5701 33.3972 51.5978 38.103C51.6108 40.3196 51.4877 42.9646 51.225 45.7574L51.1837 46.1966L51.4801 46.5232L58.9977 54.8079L59.0156 54.8277L59.0214 54.8335C59.0215 54.8346 59.0216 54.8359 59.0217 54.8371C59.0222 54.8455 59.0227 54.8542 59.0231 54.8636L55.8881 67.2936L55.8808 67.3225C55.8244 67.3406 55.743 67.3633 55.6278 67.389L53.3762 67.3984C53.3333 67.3792 53.3124 67.3651 53.299 67.3557C53.267 67.333 53.2335 67.3042 53.1564 67.2295L49.2388 60.0472L48.9532 59.5236L48.3569 59.5261L36.8016 59.5745L36.2035 59.577L35.9228 60.1053L32.0892 67.3213L32.0891 67.3214L32.0884 67.3221L32.0877 67.3228L32.087 67.3235L32.0864 67.3242L32.0857 67.3249L32.085 67.3256L32.0843 67.3263L32.0836 67.327L32.0829 67.3277L32.0822 67.3284L32.0815 67.3291L32.0808 67.3298L32.0801 67.3305L32.0794 67.3312L32.0787 67.3319L32.078 67.3327L32.0772 67.3334L32.0765 67.3341L32.0758 67.3349L32.0751 67.3356L32.0743 67.3363L32.0736 67.3371L32.0728 67.3378L32.0721 67.3386L32.0714 67.3393L32.0706 67.3401L32.0699 67.3408L32.0691 67.3416L32.0684 67.3424L32.0676 67.3431L32.0668 67.3439L32.0661 67.3447L32.0653 67.3455L32.0645 67.3462L32.0641 67.3466L29.6604 67.3567L29.6646 68.3568L29.6604 67.3567C29.6485 67.3567 29.638 67.3565 29.6289 67.356L26.3595 54.997C26.3598 54.9875 26.3601 54.9788 26.3606 54.9704C26.3607 54.9695 26.3607 54.9686 26.3608 54.9678L26.3655 54.963L26.3833 54.943L33.803 46.5958L34.093 46.2695L34.051 45.8349C33.7523 42.7502 33.6003 40.3879 33.5873 38.175C33.5577 33.1589 34.0936 29.0794 35.4107 25.8667ZM45.3671 40.3792C45.7061 40.0366 45.9995 39.6545 46.2015 39.193C46.4053 38.7272 46.4935 38.2324 46.4903 37.6928C46.4871 37.1533 46.3931 36.6595 46.1841 36.196C45.9769 35.7368 45.6795 35.3576 45.3368 35.0183C44.9941 34.6789 44.612 34.3852 44.1509 34.1827C43.6854 33.9782 43.1908 33.8892 42.6513 33.8914C42.1119 33.8937 41.6181 33.9869 41.1545 34.1955C40.6952 34.4021 40.3161 34.6994 39.9771 35.0419C39.638 35.3844 39.3447 35.7666 39.1427 36.228C38.9389 36.6938 38.8507 37.1887 38.8539 37.7282C38.857 38.2678 38.951 38.7616 39.1601 39.2251C39.3672 39.6842 39.6647 40.0634 40.0074 40.4028C40.3501 40.7421 40.7322 41.0358 41.1933 41.2384C41.6588 41.4428 42.1534 41.5319 42.6929 41.5296C43.2323 41.5273 43.7261 41.4342 44.1897 41.2256C44.649 41.019 45.0281 40.7217 45.3671 40.3792Z" stroke="white" stroke-width="2"/>
</svg>
