<svg width="24" height="40" viewBox="0 0 24 40" fill="none" xmlns="http://www.w3.org/2000/svg">
<path d="M8.0444 27.6613C8.0444 25.1523 8.34628 23.1541 8.95006 21.6667C9.55383 20.1792 10.6548 18.7186 12.2531 17.2849C13.869 15.8333 14.9434 14.6595 15.4761 13.7634C16.0089 12.8495 16.2752 11.8907 16.2752 10.8871C16.2752 7.85842 14.8901 6.34409 12.1199 6.34409C10.8058 6.34409 9.74917 6.75627 8.95006 7.58065C8.1687 8.3871 7.76027 9.50717 7.72475 10.9409H0C0.0355161 7.51792 1.12764 4.83871 3.27636 2.90323C5.44284 0.967742 8.39068 0 12.1199 0C15.8846 0 18.8058 0.922939 20.8835 2.76882C22.9612 4.59677 24 7.18638 24 10.5376C24 12.0609 23.6626 13.5036 22.9878 14.8656C22.313 16.2097 21.1321 17.7061 19.4451 19.3548L17.2875 21.4247C15.9378 22.733 15.1654 24.2652 14.97 26.0215L14.8635 27.6613H8.0444ZM7.27192 35.914C7.27192 34.7133 7.67148 33.7276 8.47059 32.957C9.28746 32.1685 10.3263 31.7742 11.5871 31.7742C12.8479 31.7742 13.8779 32.1685 14.677 32.957C15.4939 33.7276 15.9023 34.7133 15.9023 35.914C15.9023 37.0968 15.5028 38.0735 14.7037 38.8441C13.9223 39.6147 12.8835 40 11.5871 40C10.2908 40 9.24306 39.6147 8.44395 38.8441C7.6626 38.0735 7.27192 37.0968 7.27192 35.914Z" fill="white"/>
</svg>
