<svg width="86" height="90" viewBox="0 0 86 90" fill="none" xmlns="http://www.w3.org/2000/svg">
<rect x="0.5" y="0.917969" width="85" height="88.0205" rx="4.5" fill="#1E1E1E" stroke="#787878"/>
<path fill-rule="evenodd" clip-rule="evenodd" d="M44.1635 44.0286C47.9332 43.1385 50.2675 39.3609 49.3774 35.5912C48.4873 31.8215 44.7097 29.4871 40.94 30.3773C37.1703 31.2674 34.8359 35.045 35.7261 38.8147C36.6162 42.5844 40.3938 44.9187 44.1635 44.0286ZM44.6805 46.1488H40.9789C33.9652 46.1488 28.3154 51.7987 28.3154 58.8124H57.5388C57.5388 51.7987 51.6941 46.1488 44.6805 46.1488Z" fill="white"/>
<path fill-rule="evenodd" clip-rule="evenodd" d="M67.8393 43.2733C69.8575 42.7967 71.1072 40.7744 70.6307 38.7562C70.1541 36.738 68.1318 35.4883 66.1136 35.9649C64.0955 36.4414 62.8457 38.4638 63.3223 40.4819C63.7988 42.5001 65.8212 43.7498 67.8393 43.2733ZM68.1161 44.408H66.1344C62.3796 44.408 59.3549 47.4327 59.3549 51.1875H75C75 47.4327 71.871 44.408 68.1161 44.408Z" fill="#386EE6"/>
<path fill-rule="evenodd" clip-rule="evenodd" d="M19.7145 43.272C21.7326 42.7955 22.9824 40.7731 22.5058 38.755C22.0293 36.7368 20.0069 35.4871 17.9888 35.9636C15.9706 36.4402 14.7209 38.4625 15.1974 40.4807C15.674 42.4989 17.6963 43.7486 19.7145 43.272ZM19.9912 44.4068H18.0095C14.2547 44.4068 11.23 47.4315 11.23 51.1863H26.8751C26.8751 47.4315 23.7461 44.4068 19.9912 44.4068Z" fill="#386EE6"/>
</svg>
