<svg width="64" height="29" viewBox="0 0 64 29" fill="none" xmlns="http://www.w3.org/2000/svg">
<path fill-rule="evenodd" clip-rule="evenodd" d="M33.1635 14.0286C36.9332 13.1385 39.2675 9.36092 38.3774 5.59121C37.4873 1.8215 33.7097 -0.512855 29.94 0.37728C26.1703 1.26742 23.8359 5.04497 24.7261 8.81468C25.6162 12.5844 29.3938 14.9187 33.1635 14.0286ZM33.6805 16.1488H29.9789C22.9652 16.1488 17.3154 21.7987 17.3154 28.8124H46.5388C46.5388 21.7987 40.6941 16.1488 33.6805 16.1488Z" fill="white"/>
<path fill-rule="evenodd" clip-rule="evenodd" d="M56.8393 13.2733C58.8575 12.7967 60.1072 10.7744 59.6307 8.7562C59.1541 6.73804 57.1318 5.48832 55.1136 5.96487C53.0955 6.44141 51.8457 8.46376 52.3223 10.4819C52.7988 12.5001 54.8212 13.7498 56.8393 13.2733ZM57.1161 14.408H55.1344C51.3796 14.408 48.3549 17.4327 48.3549 21.1875H64C64 17.4327 60.871 14.408 57.1161 14.408Z" fill="#386EE6"/>
<path fill-rule="evenodd" clip-rule="evenodd" d="M8.71447 13.272C10.7326 12.7955 11.9824 10.7731 11.5058 8.75498C11.0293 6.73682 9.00691 5.4871 6.98875 5.96364C4.97059 6.44019 3.72087 8.46254 4.19741 10.4807C4.67396 12.4989 6.69631 13.7486 8.71447 13.272ZM8.99125 14.4068H7.00953C3.2547 14.4068 0.22998 17.4315 0.22998 21.1863H15.8751C15.8751 17.4315 12.7461 14.4068 8.99125 14.4068Z" fill="#386EE6"/>
</svg>
