<svg width="13" height="11" viewBox="0 0 13 11" fill="none" xmlns="http://www.w3.org/2000/svg">
<path d="M12.8713 9.44888L7.42808 0.504113C6.99694 -0.168038 5.97297 -0.168038 5.54182 0.504113L0.152513 9.44888C-0.278632 10.121 0.260299 11 1.0687 11H11.8473C12.7635 11 13.2485 10.1727 12.8713 9.44888ZM5.97297 3.76146C5.97297 3.45123 6.18854 3.24442 6.5119 3.24442C6.83526 3.24442 7.05083 3.45123 7.05083 3.76146V6.19154C7.05083 6.50176 6.83526 6.70858 6.5119 6.70858C6.18854 6.70858 5.97297 6.50176 5.97297 6.19154V3.76146ZM6.5119 9.08696C6.08075 9.08696 5.7574 8.77673 5.7574 8.3631C5.7574 7.94947 6.08075 7.63925 6.5119 7.63925C6.94304 7.63925 7.2664 7.94947 7.2664 8.3631C7.21251 8.72503 6.88915 9.08696 6.5119 9.08696Z" fill="#FE2932"/>
</svg>
