<svg width="154" height="154" viewBox="0 0 154 154" fill="none" xmlns="http://www.w3.org/2000/svg">
<path d="M0 0H4.66667V4.66667H0V0ZM4.66667 0H9.33333V4.66667H4.66667V0ZM9.33333 0H14V4.66667H9.33333V0ZM14 0H18.6667V4.66667H14V0ZM18.6667 0H23.3333V4.66667H18.6667V0ZM23.3333 0H28V4.66667H23.3333V0ZM28 0H32.6667V4.66667H28V0ZM37.3333 0H42V4.66667H37.3333V0ZM42 0H46.6667V4.66667H42V0ZM51.3333 0H56V4.66667H51.3333V0ZM60.6667 0H65.3333V4.66667H60.6667V0ZM65.3333 0H70V4.66667H65.3333V0ZM74.6667 0H79.3333V4.66667H74.6667V0ZM79.3333 0H84V4.66667H79.3333V0ZM88.6667 0H93.3333V4.66667H88.6667V0ZM98 0H102.667V4.66667H98V0ZM107.333 0H112V4.66667H107.333V0ZM121.333 0H126V4.66667H121.333V0ZM126 0H130.667V4.66667H126V0ZM130.667 0H135.333V4.66667H130.667V0ZM135.333 0H140V4.66667H135.333V0ZM140 0H144.667V4.66667H140V0ZM144.667 0H149.333V4.66667H144.667V0ZM149.333 0H154V4.66667H149.333V0ZM0 4.66667H4.66667V9.33333H0V4.66667ZM28 4.66667H32.6667V9.33333H28V4.66667ZM42 4.66667H46.6667V9.33333H42V4.66667ZM46.6667 4.66667H51.3333V9.33333H46.6667V4.66667ZM51.3333 4.66667H56V9.33333H51.3333V4.66667ZM56 4.66667H60.6667V9.33333H56V4.66667ZM60.6667 4.66667H65.3333V9.33333H60.6667V4.66667ZM65.3333 4.66667H70V9.33333H65.3333V4.66667ZM74.6667 4.66667H79.3333V9.33333H74.6667V4.66667ZM79.3333 4.66667H84V9.33333H79.3333V4.66667ZM98 4.66667H102.667V9.33333H98V4.66667ZM112 4.66667H116.667V9.33333H112V4.66667ZM121.333 4.66667H126V9.33333H121.333V4.66667ZM149.333 4.66667H154V9.33333H149.333V4.66667ZM0 9.33333H4.66667V14H0V9.33333ZM9.33333 9.33333H14V14H9.33333V9.33333ZM14 9.33333H18.6667V14H14V9.33333ZM18.6667 9.33333H23.3333V14H18.6667V9.33333ZM28 9.33333H32.6667V14H28V9.33333ZM46.6667 9.33333H51.3333V14H46.6667V9.33333ZM65.3333 9.33333H70V14H65.3333V9.33333ZM70 9.33333H74.6667V14H70V9.33333ZM79.3333 9.33333H84V14H79.3333V9.33333ZM84 9.33333H88.6667V14H84V9.33333ZM98 9.33333H102.667V14H98V9.33333ZM102.667 9.33333H107.333V14H102.667V9.33333ZM107.333 9.33333H112V14H107.333V9.33333ZM121.333 9.33333H126V14H121.333V9.33333ZM130.667 9.33333H135.333V14H130.667V9.33333ZM135.333 9.33333H140V14H135.333V9.33333ZM140 9.33333H144.667V14H140V9.33333ZM149.333 9.33333H154V14H149.333V9.33333ZM0 14H4.66667V18.6667H0V14ZM9.33333 14H14V18.6667H9.33333V14ZM14 14H18.6667V18.6667H14V14ZM18.6667 14H23.3333V18.6667H18.6667V14ZM28 14H32.6667V18.6667H28V14ZM46.6667 14H51.3333V18.6667H46.6667V14ZM51.3333 14H56V18.6667H51.3333V14ZM56 14H60.6667V18.6667H56V14ZM70 14H74.6667V18.6667H70V14ZM88.6667 14H93.3333V18.6667H88.6667V14ZM93.3333 14H98V18.6667H93.3333V14ZM98 14H102.667V18.6667H98V14ZM102.667 14H107.333V18.6667H102.667V14ZM112 14H116.667V18.6667H112V14ZM121.333 14H126V18.6667H121.333V14ZM130.667 14H135.333V18.6667H130.667V14ZM135.333 14H140V18.6667H135.333V14ZM140 14H144.667V18.6667H140V14ZM149.333 14H154V18.6667H149.333V14ZM0 18.6667H4.66667V23.3333H0V18.6667ZM9.33333 18.6667H14V23.3333H9.33333V18.6667ZM14 18.6667H18.6667V23.3333H14V18.6667ZM18.6667 18.6667H23.3333V23.3333H18.6667V18.6667ZM28 18.6667H32.6667V23.3333H28V18.6667ZM37.3333 18.6667H42V23.3333H37.3333V18.6667ZM42 18.6667H46.6667V23.3333H42V18.6667ZM46.6667 18.6667H51.3333V23.3333H46.6667V18.6667ZM51.3333 18.6667H56V23.3333H51.3333V18.6667ZM56 18.6667H60.6667V23.3333H56V18.6667ZM60.6667 18.6667H65.3333V23.3333H60.6667V18.6667ZM65.3333 18.6667H70V23.3333H65.3333V18.6667ZM74.6667 18.6667H79.3333V23.3333H74.6667V18.6667ZM84 18.6667H88.6667V23.3333H84V18.6667ZM98 18.6667H102.667V23.3333H98V18.6667ZM121.333 18.6667H126V23.3333H121.333V18.6667ZM130.667 18.6667H135.333V23.3333H130.667V18.6667ZM135.333 18.6667H140V23.3333H135.333V18.6667ZM140 18.6667H144.667V23.3333H140V18.6667ZM149.333 18.6667H154V23.3333H149.333V18.6667ZM0 23.3333H4.66667V28H0V23.3333ZM28 23.3333H32.6667V28H28V23.3333ZM37.3333 23.3333H42V28H37.3333V23.3333ZM42 23.3333H46.6667V28H42V23.3333ZM51.3333 23.3333H56V28H51.3333V23.3333ZM56 23.3333H60.6667V28H56V23.3333ZM74.6667 23.3333H79.3333V28H74.6667V23.3333ZM84 23.3333H88.6667V28H84V23.3333ZM93.3333 23.3333H98V28H93.3333V23.3333ZM102.667 23.3333H107.333V28H102.667V23.3333ZM121.333 23.3333H126V28H121.333V23.3333ZM149.333 23.3333H154V28H149.333V23.3333ZM0 28H4.66667V32.6667H0V28ZM4.66667 28H9.33333V32.6667H4.66667V28ZM9.33333 28H14V32.6667H9.33333V28ZM14 28H18.6667V32.6667H14V28ZM18.6667 28H23.3333V32.6667H18.6667V28ZM23.3333 28H28V32.6667H23.3333V28ZM28 28H32.6667V32.6667H28V28ZM37.3333 28H42V32.6667H37.3333V28ZM46.6667 28H51.3333V32.6667H46.6667V28ZM56 28H60.6667V32.6667H56V28ZM65.3333 28H70V32.6667H65.3333V28ZM74.6667 28H79.3333V32.6667H74.6667V28ZM84 28H88.6667V32.6667H84V28ZM93.3333 28H98V32.6667H93.3333V28ZM102.667 28H107.333V32.6667H102.667V28ZM112 28H116.667V32.6667H112V28ZM121.333 28H126V32.6667H121.333V28ZM126 28H130.667V32.6667H126V28ZM130.667 28H135.333V32.6667H130.667V28ZM135.333 28H140V32.6667H135.333V28ZM140 28H144.667V32.6667H140V28ZM144.667 28H149.333V32.6667H144.667V28ZM149.333 28H154V32.6667H149.333V28ZM42 32.6667H46.6667V37.3333H42V32.6667ZM46.6667 32.6667H51.3333V37.3333H46.6667V32.6667ZM60.6667 32.6667H65.3333V37.3333H60.6667V32.6667ZM65.3333 32.6667H70V37.3333H65.3333V32.6667ZM74.6667 32.6667H79.3333V37.3333H74.6667V32.6667ZM84 32.6667H88.6667V37.3333H84V32.6667ZM98 32.6667H102.667V37.3333H98V32.6667ZM112 32.6667H116.667V37.3333H112V32.6667ZM4.66667 37.3333H9.33333V42H4.66667V37.3333ZM9.33333 37.3333H14V42H9.33333V37.3333ZM14 37.3333H18.6667V42H14V37.3333ZM18.6667 37.3333H23.3333V42H18.6667V37.3333ZM23.3333 37.3333H28V42H23.3333V37.3333ZM28 37.3333H32.6667V42H28V37.3333ZM32.6667 37.3333H37.3333V42H32.6667V37.3333ZM51.3333 37.3333H56V42H51.3333V37.3333ZM56 37.3333H60.6667V42H56V37.3333ZM60.6667 37.3333H65.3333V42H60.6667V37.3333ZM65.3333 37.3333H70V42H65.3333V37.3333ZM70 37.3333H74.6667V42H70V37.3333ZM79.3333 37.3333H84V42H79.3333V37.3333ZM93.3333 37.3333H98V42H93.3333V37.3333ZM112 37.3333H116.667V42H112V37.3333ZM126 37.3333H130.667V42H126V37.3333ZM130.667 37.3333H135.333V42H130.667V37.3333ZM149.333 37.3333H154V42H149.333V37.3333ZM9.33333 42H14V46.6667H9.33333V42ZM14 42H18.6667V46.6667H14V42ZM23.3333 42H28V46.6667H23.3333V42ZM42 42H46.6667V46.6667H42V42ZM56 42H60.6667V46.6667H56V42ZM60.6667 42H65.3333V46.6667H60.6667V42ZM70 42H74.6667V46.6667H70V42ZM74.6667 42H79.3333V46.6667H74.6667V42ZM84 42H88.6667V46.6667H84V42ZM88.6667 42H93.3333V46.6667H88.6667V42ZM98 42H102.667V46.6667H98V42ZM102.667 42H107.333V46.6667H102.667V42ZM107.333 42H112V46.6667H107.333V42ZM116.667 42H121.333V46.6667H116.667V42ZM121.333 42H126V46.6667H121.333V42ZM126 42H130.667V46.6667H126V42ZM144.667 42H149.333V46.6667H144.667V42ZM149.333 42H154V46.6667H149.333V42ZM0 46.6667H4.66667V51.3333H0V46.6667ZM4.66667 46.6667H9.33333V51.3333H4.66667V46.6667ZM9.33333 46.6667H14V51.3333H9.33333V46.6667ZM28 46.6667H32.6667V51.3333H28V46.6667ZM32.6667 46.6667H37.3333V51.3333H32.6667V46.6667ZM37.3333 46.6667H42V51.3333H37.3333V46.6667ZM56 46.6667H60.6667V51.3333H56V46.6667ZM60.6667 46.6667H65.3333V51.3333H60.6667V46.6667ZM65.3333 46.6667H70V51.3333H65.3333V46.6667ZM70 46.6667H74.6667V51.3333H70V46.6667ZM74.6667 46.6667H79.3333V51.3333H74.6667V46.6667ZM84 46.6667H88.6667V51.3333H84V46.6667ZM93.3333 46.6667H98V51.3333H93.3333V46.6667ZM112 46.6667H116.667V51.3333H112V46.6667ZM130.667 46.6667H135.333V51.3333H130.667V46.6667ZM140 46.6667H144.667V51.3333H140V46.6667ZM0 51.3333H4.66667V56H0V51.3333ZM4.66667 51.3333H9.33333V56H4.66667V51.3333ZM9.33333 51.3333H14V56H9.33333V51.3333ZM14 51.3333H18.6667V56H14V51.3333ZM18.6667 51.3333H23.3333V56H18.6667V51.3333ZM23.3333 51.3333H28V56H23.3333V51.3333ZM32.6667 51.3333H37.3333V56H32.6667V51.3333ZM37.3333 51.3333H42V56H37.3333V51.3333ZM42 51.3333H46.6667V56H42V51.3333ZM46.6667 51.3333H51.3333V56H46.6667V51.3333ZM56 51.3333H60.6667V56H56V51.3333ZM60.6667 51.3333H65.3333V56H60.6667V51.3333ZM98 51.3333H102.667V56H98V51.3333ZM112 51.3333H116.667V56H112V51.3333ZM116.667 51.3333H121.333V56H116.667V51.3333ZM121.333 51.3333H126V56H121.333V51.3333ZM126 51.3333H130.667V56H126V51.3333ZM140 51.3333H144.667V56H140V51.3333ZM144.667 51.3333H149.333V56H144.667V51.3333ZM0 56H4.66667V60.6667H0V56ZM9.33333 56H14V60.6667H9.33333V56ZM14 56H18.6667V60.6667H14V56ZM23.3333 56H28V60.6667H23.3333V56ZM28 56H32.6667V60.6667H28V56ZM37.3333 56H42V60.6667H37.3333V56ZM51.3333 56H56V60.6667H51.3333V56ZM56 56H60.6667V60.6667H56V56ZM60.6667 56H65.3333V60.6667H60.6667V56ZM65.3333 56H70V60.6667H65.3333V56ZM70 56H74.6667V60.6667H70V56ZM74.6667 56H79.3333V60.6667H74.6667V56ZM84 56H88.6667V60.6667H84V56ZM107.333 56H112V60.6667H107.333V56ZM126 56H130.667V60.6667H126V56ZM130.667 56H135.333V60.6667H130.667V56ZM135.333 56H140V60.6667H135.333V56ZM14 60.6667H18.6667V65.3333H14V60.6667ZM37.3333 60.6667H42V65.3333H37.3333V60.6667ZM46.6667 60.6667H51.3333V65.3333H46.6667V60.6667ZM51.3333 60.6667H56V65.3333H51.3333V60.6667ZM56 60.6667H60.6667V65.3333H56V60.6667ZM60.6667 60.6667H65.3333V65.3333H60.6667V60.6667ZM65.3333 60.6667H70V65.3333H65.3333V60.6667ZM79.3333 60.6667H84V65.3333H79.3333V60.6667ZM93.3333 60.6667H98V65.3333H93.3333V60.6667ZM98 60.6667H102.667V65.3333H98V60.6667ZM102.667 60.6667H107.333V65.3333H102.667V60.6667ZM107.333 60.6667H112V65.3333H107.333V60.6667ZM112 60.6667H116.667V65.3333H112V60.6667ZM116.667 60.6667H121.333V65.3333H116.667V60.6667ZM121.333 60.6667H126V65.3333H121.333V60.6667ZM140 60.6667H144.667V65.3333H140V60.6667ZM144.667 60.6667H149.333V65.3333H144.667V60.6667ZM149.333 60.6667H154V65.3333H149.333V60.6667ZM0 65.3333H4.66667V70H0V65.3333ZM9.33333 65.3333H14V70H9.33333V65.3333ZM14 65.3333H18.6667V70H14V65.3333ZM23.3333 65.3333H28V70H23.3333V65.3333ZM28 65.3333H32.6667V70H28V65.3333ZM32.6667 65.3333H37.3333V70H32.6667V65.3333ZM37.3333 65.3333H42V70H37.3333V65.3333ZM42 65.3333H46.6667V70H42V65.3333ZM46.6667 65.3333H51.3333V70H46.6667V65.3333ZM51.3333 65.3333H56V70H51.3333V65.3333ZM56 65.3333H60.6667V70H56V65.3333ZM60.6667 65.3333H65.3333V70H60.6667V65.3333ZM65.3333 65.3333H70V70H65.3333V65.3333ZM70 65.3333H74.6667V70H70V65.3333ZM74.6667 65.3333H79.3333V70H74.6667V65.3333ZM79.3333 65.3333H84V70H79.3333V65.3333ZM84 65.3333H88.6667V70H84V65.3333ZM88.6667 65.3333H93.3333V70H88.6667V65.3333ZM98 65.3333H102.667V70H98V65.3333ZM102.667 65.3333H107.333V70H102.667V65.3333ZM112 65.3333H116.667V70H112V65.3333ZM121.333 65.3333H126V70H121.333V65.3333ZM126 65.3333H130.667V70H126V65.3333ZM135.333 65.3333H140V70H135.333V65.3333ZM140 65.3333H144.667V70H140V65.3333ZM144.667 65.3333H149.333V70H144.667V65.3333ZM0 70H4.66667V74.6667H0V70ZM51.3333 70H56V74.6667H51.3333V70ZM60.6667 70H65.3333V74.6667H60.6667V70ZM65.3333 70H70V74.6667H65.3333V70ZM84 70H88.6667V74.6667H84V70ZM88.6667 70H93.3333V74.6667H88.6667V70ZM93.3333 70H98V74.6667H93.3333V70ZM98 70H102.667V74.6667H98V70ZM107.333 70H112V74.6667H107.333V70ZM116.667 70H121.333V74.6667H116.667V70ZM135.333 70H140V74.6667H135.333V70ZM140 70H144.667V74.6667H140V70ZM4.66667 74.6667H9.33333V79.3333H4.66667V74.6667ZM9.33333 74.6667H14V79.3333H9.33333V74.6667ZM18.6667 74.6667H23.3333V79.3333H18.6667V74.6667ZM28 74.6667H32.6667V79.3333H28V74.6667ZM60.6667 74.6667H65.3333V79.3333H60.6667V74.6667ZM65.3333 74.6667H70V79.3333H65.3333V74.6667ZM84 74.6667H88.6667V79.3333H84V74.6667ZM88.6667 74.6667H93.3333V79.3333H88.6667V74.6667ZM130.667 74.6667H135.333V79.3333H130.667V74.6667ZM140 74.6667H144.667V79.3333H140V74.6667ZM4.66667 79.3333H9.33333V84H4.66667V79.3333ZM9.33333 79.3333H14V84H9.33333V79.3333ZM14 79.3333H18.6667V84H14V79.3333ZM18.6667 79.3333H23.3333V84H18.6667V79.3333ZM23.3333 79.3333H28V84H23.3333V79.3333ZM42 79.3333H46.6667V84H42V79.3333ZM56 79.3333H60.6667V84H56V79.3333ZM60.6667 79.3333H65.3333V84H60.6667V79.3333ZM65.3333 79.3333H70V84H65.3333V79.3333ZM70 79.3333H74.6667V84H70V79.3333ZM93.3333 79.3333H98V84H93.3333V79.3333ZM102.667 79.3333H107.333V84H102.667V79.3333ZM107.333 79.3333H112V84H107.333V79.3333ZM112 79.3333H116.667V84H112V79.3333ZM116.667 79.3333H121.333V84H116.667V79.3333ZM121.333 79.3333H126V84H121.333V79.3333ZM126 79.3333H130.667V84H126V79.3333ZM135.333 79.3333H140V84H135.333V79.3333ZM140 79.3333H144.667V84H140V79.3333ZM0 84H4.66667V88.6667H0V84ZM14 84H18.6667V88.6667H14V84ZM18.6667 84H23.3333V88.6667H18.6667V84ZM28 84H32.6667V88.6667H28V84ZM32.6667 84H37.3333V88.6667H32.6667V84ZM65.3333 84H70V88.6667H65.3333V84ZM74.6667 84H79.3333V88.6667H74.6667V84ZM79.3333 84H84V88.6667H79.3333V84ZM84 84H88.6667V88.6667H84V84ZM98 84H102.667V88.6667H98V84ZM130.667 84H135.333V88.6667H130.667V84ZM135.333 84H140V88.6667H135.333V84ZM140 84H144.667V88.6667H140V84ZM144.667 84H149.333V88.6667H144.667V84ZM4.66667 88.6667H9.33333V93.3333H4.66667V88.6667ZM9.33333 88.6667H14V93.3333H9.33333V88.6667ZM14 88.6667H18.6667V93.3333H14V88.6667ZM32.6667 88.6667H37.3333V93.3333H32.6667V88.6667ZM46.6667 88.6667H51.3333V93.3333H46.6667V88.6667ZM51.3333 88.6667H56V93.3333H51.3333V88.6667ZM60.6667 88.6667H65.3333V93.3333H60.6667V88.6667ZM65.3333 88.6667H70V93.3333H65.3333V88.6667ZM74.6667 88.6667H79.3333V93.3333H74.6667V88.6667ZM79.3333 88.6667H84V93.3333H79.3333V88.6667ZM88.6667 88.6667H93.3333V93.3333H88.6667V88.6667ZM98 88.6667H102.667V93.3333H98V88.6667ZM102.667 88.6667H107.333V93.3333H102.667V88.6667ZM112 88.6667H116.667V93.3333H112V88.6667ZM116.667 88.6667H121.333V93.3333H116.667V88.6667ZM121.333 88.6667H126V93.3333H121.333V88.6667ZM126 88.6667H130.667V93.3333H126V88.6667ZM140 88.6667H144.667V93.3333H140V88.6667ZM149.333 88.6667H154V93.3333H149.333V88.6667ZM0 93.3333H4.66667V98H0V93.3333ZM9.33333 93.3333H14V98H9.33333V93.3333ZM18.6667 93.3333H23.3333V98H18.6667V93.3333ZM23.3333 93.3333H28V98H23.3333V93.3333ZM28 93.3333H32.6667V98H28V93.3333ZM37.3333 93.3333H42V98H37.3333V93.3333ZM46.6667 93.3333H51.3333V98H46.6667V93.3333ZM51.3333 93.3333H56V98H51.3333V93.3333ZM60.6667 93.3333H65.3333V98H60.6667V93.3333ZM65.3333 93.3333H70V98H65.3333V93.3333ZM70 93.3333H74.6667V98H70V93.3333ZM74.6667 93.3333H79.3333V98H74.6667V93.3333ZM84 93.3333H88.6667V98H84V93.3333ZM107.333 93.3333H112V98H107.333V93.3333ZM126 93.3333H130.667V98H126V93.3333ZM130.667 93.3333H135.333V98H130.667V93.3333ZM135.333 93.3333H140V98H135.333V93.3333ZM0 98H4.66667V102.667H0V98ZM9.33333 98H14V102.667H9.33333V98ZM32.6667 98H37.3333V102.667H32.6667V98ZM42 98H46.6667V102.667H42V98ZM46.6667 98H51.3333V102.667H46.6667V98ZM51.3333 98H56V102.667H51.3333V98ZM60.6667 98H65.3333V102.667H60.6667V98ZM65.3333 98H70V102.667H65.3333V98ZM74.6667 98H79.3333V102.667H74.6667V98ZM79.3333 98H84V102.667H79.3333V98ZM98 98H102.667V102.667H98V98ZM102.667 98H107.333V102.667H102.667V98ZM107.333 98H112V102.667H107.333V98ZM112 98H116.667V102.667H112V98ZM116.667 98H121.333V102.667H116.667V98ZM121.333 98H126V102.667H121.333V98ZM135.333 98H140V102.667H135.333V98ZM140 98H144.667V102.667H140V98ZM144.667 98H149.333V102.667H144.667V98ZM149.333 98H154V102.667H149.333V98ZM0 102.667H4.66667V107.333H0V102.667ZM9.33333 102.667H14V107.333H9.33333V102.667ZM18.6667 102.667H23.3333V107.333H18.6667V102.667ZM28 102.667H32.6667V107.333H28V102.667ZM32.6667 102.667H37.3333V107.333H32.6667V102.667ZM51.3333 102.667H56V107.333H51.3333V102.667ZM56 102.667H60.6667V107.333H56V102.667ZM65.3333 102.667H70V107.333H65.3333V102.667ZM93.3333 102.667H98V107.333H93.3333V102.667ZM98 102.667H102.667V107.333H98V102.667ZM112 102.667H116.667V107.333H112V102.667ZM140 102.667H144.667V107.333H140V102.667ZM0 107.333H4.66667V112H0V107.333ZM9.33333 107.333H14V112H9.33333V107.333ZM14 107.333H18.6667V112H14V107.333ZM18.6667 107.333H23.3333V112H18.6667V107.333ZM23.3333 107.333H28V112H23.3333V107.333ZM42 107.333H46.6667V112H42V107.333ZM56 107.333H60.6667V112H56V107.333ZM60.6667 107.333H65.3333V112H60.6667V107.333ZM74.6667 107.333H79.3333V112H74.6667V107.333ZM79.3333 107.333H84V112H79.3333V107.333ZM98 107.333H102.667V112H98V107.333ZM102.667 107.333H107.333V112H102.667V107.333ZM107.333 107.333H112V112H107.333V107.333ZM121.333 107.333H126V112H121.333V107.333ZM126 107.333H130.667V112H126V107.333ZM140 107.333H144.667V112H140V107.333ZM149.333 107.333H154V112H149.333V107.333ZM0 112H4.66667V116.667H0V112ZM9.33333 112H14V116.667H9.33333V112ZM14 112H18.6667V116.667H14V112ZM28 112H32.6667V116.667H28V112ZM37.3333 112H42V116.667H37.3333V112ZM42 112H46.6667V116.667H42V112ZM56 112H60.6667V116.667H56V112ZM70 112H74.6667V116.667H70V112ZM84 112H88.6667V116.667H84V112ZM88.6667 112H93.3333V116.667H88.6667V112ZM112 112H116.667V116.667H112V112ZM116.667 112H121.333V116.667H116.667V112ZM121.333 112H126V116.667H121.333V112ZM126 112H130.667V116.667H126V112ZM130.667 112H135.333V116.667H130.667V112ZM135.333 112H140V116.667H135.333V112ZM149.333 112H154V116.667H149.333V112ZM37.3333 116.667H42V121.333H37.3333V116.667ZM46.6667 116.667H51.3333V121.333H46.6667V116.667ZM51.3333 116.667H56V121.333H51.3333V116.667ZM84 116.667H88.6667V121.333H84V116.667ZM88.6667 116.667H93.3333V121.333H88.6667V116.667ZM93.3333 116.667H98V121.333H93.3333V116.667ZM98 116.667H102.667V121.333H98V116.667ZM102.667 116.667H107.333V121.333H102.667V116.667ZM107.333 116.667H112V121.333H107.333V116.667ZM112 116.667H116.667V121.333H112V116.667ZM130.667 116.667H135.333V121.333H130.667V116.667ZM135.333 116.667H140V121.333H135.333V116.667ZM140 116.667H144.667V121.333H140V116.667ZM149.333 116.667H154V121.333H149.333V116.667ZM0 121.333H4.66667V126H0V121.333ZM4.66667 121.333H9.33333V126H4.66667V121.333ZM9.33333 121.333H14V126H9.33333V121.333ZM14 121.333H18.6667V126H14V121.333ZM18.6667 121.333H23.3333V126H18.6667V121.333ZM23.3333 121.333H28V126H23.3333V121.333ZM28 121.333H32.6667V126H28V121.333ZM37.3333 121.333H42V126H37.3333V121.333ZM51.3333 121.333H56V126H51.3333V121.333ZM60.6667 121.333H65.3333V126H60.6667V121.333ZM74.6667 121.333H79.3333V126H74.6667V121.333ZM79.3333 121.333H84V126H79.3333V121.333ZM102.667 121.333H107.333V126H102.667V121.333ZM107.333 121.333H112V126H107.333V121.333ZM112 121.333H116.667V126H112V121.333ZM121.333 121.333H126V126H121.333V121.333ZM130.667 121.333H135.333V126H130.667V121.333ZM140 121.333H144.667V126H140V121.333ZM144.667 121.333H149.333V126H144.667V121.333ZM0 126H4.66667V130.667H0V126ZM28 126H32.6667V130.667H28V126ZM37.3333 126H42V130.667H37.3333V126ZM46.6667 126H51.3333V130.667H46.6667V126ZM60.6667 126H65.3333V130.667H60.6667V126ZM70 126H74.6667V130.667H70V126ZM98 126H102.667V130.667H98V126ZM102.667 126H107.333V130.667H102.667V126ZM112 126H116.667V130.667H112V126ZM130.667 126H135.333V130.667H130.667V126ZM135.333 126H140V130.667H135.333V126ZM140 126H144.667V130.667H140V126ZM144.667 126H149.333V130.667H144.667V126ZM0 130.667H4.66667V135.333H0V130.667ZM9.33333 130.667H14V135.333H9.33333V130.667ZM14 130.667H18.6667V135.333H14V130.667ZM18.6667 130.667H23.3333V135.333H18.6667V130.667ZM28 130.667H32.6667V135.333H28V130.667ZM37.3333 130.667H42V135.333H37.3333V130.667ZM42 130.667H46.6667V135.333H42V130.667ZM56 130.667H60.6667V135.333H56V130.667ZM60.6667 130.667H65.3333V135.333H60.6667V130.667ZM65.3333 130.667H70V135.333H65.3333V130.667ZM70 130.667H74.6667V135.333H70V130.667ZM74.6667 130.667H79.3333V135.333H74.6667V130.667ZM79.3333 130.667H84V135.333H79.3333V130.667ZM84 130.667H88.6667V135.333H84V130.667ZM88.6667 130.667H93.3333V135.333H88.6667V130.667ZM93.3333 130.667H98V135.333H93.3333V130.667ZM98 130.667H102.667V135.333H98V130.667ZM102.667 130.667H107.333V135.333H102.667V130.667ZM112 130.667H116.667V135.333H112V130.667ZM116.667 130.667H121.333V135.333H116.667V130.667ZM121.333 130.667H126V135.333H121.333V130.667ZM126 130.667H130.667V135.333H126V130.667ZM130.667 130.667H135.333V135.333H130.667V130.667ZM140 130.667H144.667V135.333H140V130.667ZM144.667 130.667H149.333V135.333H144.667V130.667ZM0 135.333H4.66667V140H0V135.333ZM9.33333 135.333H14V140H9.33333V135.333ZM14 135.333H18.6667V140H14V135.333ZM18.6667 135.333H23.3333V140H18.6667V135.333ZM28 135.333H32.6667V140H28V135.333ZM37.3333 135.333H42V140H37.3333V135.333ZM42 135.333H46.6667V140H42V135.333ZM51.3333 135.333H56V140H51.3333V135.333ZM56 135.333H60.6667V140H56V135.333ZM65.3333 135.333H70V140H65.3333V135.333ZM79.3333 135.333H84V140H79.3333V135.333ZM84 135.333H88.6667V140H84V135.333ZM88.6667 135.333H93.3333V140H88.6667V135.333ZM98 135.333H102.667V140H98V135.333ZM112 135.333H116.667V140H112V135.333ZM130.667 135.333H135.333V140H130.667V135.333ZM135.333 135.333H140V140H135.333V135.333ZM140 135.333H144.667V140H140V135.333ZM149.333 135.333H154V140H149.333V135.333ZM0 140H4.66667V144.667H0V140ZM9.33333 140H14V144.667H9.33333V140ZM14 140H18.6667V144.667H14V140ZM18.6667 140H23.3333V144.667H18.6667V140ZM28 140H32.6667V144.667H28V140ZM37.3333 140H42V144.667H37.3333V140ZM46.6667 140H51.3333V144.667H46.6667V140ZM51.3333 140H56V144.667H51.3333V140ZM56 140H60.6667V144.667H56V140ZM65.3333 140H70V144.667H65.3333V140ZM74.6667 140H79.3333V144.667H74.6667V140ZM84 140H88.6667V144.667H84V140ZM93.3333 140H98V144.667H93.3333V140ZM98 140H102.667V144.667H98V140ZM107.333 140H112V144.667H107.333V140ZM112 140H116.667V144.667H112V140ZM116.667 140H121.333V144.667H116.667V140ZM121.333 140H126V144.667H121.333V140ZM126 140H130.667V144.667H126V140ZM135.333 140H140V144.667H135.333V140ZM140 140H144.667V144.667H140V140ZM0 144.667H4.66667V149.333H0V144.667ZM28 144.667H32.6667V149.333H28V144.667ZM37.3333 144.667H42V149.333H37.3333V144.667ZM46.6667 144.667H51.3333V149.333H46.6667V144.667ZM56 144.667H60.6667V149.333H56V144.667ZM70 144.667H74.6667V149.333H70V144.667ZM74.6667 144.667H79.3333V149.333H74.6667V144.667ZM79.3333 144.667H84V149.333H79.3333V144.667ZM84 144.667H88.6667V149.333H84V144.667ZM98 144.667H102.667V149.333H98V144.667ZM102.667 144.667H107.333V149.333H102.667V144.667ZM107.333 144.667H112V149.333H107.333V144.667ZM116.667 144.667H121.333V149.333H116.667V144.667ZM126 144.667H130.667V149.333H126V144.667ZM130.667 144.667H135.333V149.333H130.667V144.667ZM140 144.667H144.667V149.333H140V144.667ZM0 149.333H4.66667V154H0V149.333ZM4.66667 149.333H9.33333V154H4.66667V149.333ZM9.33333 149.333H14V154H9.33333V149.333ZM14 149.333H18.6667V154H14V149.333ZM18.6667 149.333H23.3333V154H18.6667V149.333ZM23.3333 149.333H28V154H23.3333V149.333ZM28 149.333H32.6667V154H28V149.333ZM42 149.333H46.6667V154H42V149.333ZM46.6667 149.333H51.3333V154H46.6667V149.333ZM93.3333 149.333H98V154H93.3333V149.333ZM112 149.333H116.667V154H112V149.333ZM116.667 149.333H121.333V154H116.667V149.333ZM121.333 149.333H126V154H121.333V149.333ZM135.333 149.333H140V154H135.333V149.333ZM144.667 149.333H149.333V154H144.667V149.333Z" fill="white"/>
</svg>
