<svg width="37" height="49" viewBox="0 0 37 49" fill="none" xmlns="http://www.w3.org/2000/svg">
<path d="M25.4097 43.4141C26.4399 43.4141 27.2842 43.2958 27.9424 43.0594C28.6149 42.809 29.1515 42.4821 29.5522 42.0788C29.9528 41.6754 30.2318 41.2164 30.3892 40.7018C30.5466 40.1733 30.6253 39.6308 30.6253 39.0744C30.6253 38.4624 30.5323 37.913 30.3463 37.4262C30.1603 36.9394 29.8598 36.5291 29.4448 36.1953C29.0299 35.8475 28.4861 35.5833 27.8136 35.4025C27.1554 35.2216 26.3398 35.1312 25.3667 35.1312H19.8935V43.4141H25.4097ZM19.8935 22.6966V30.8751H24.1218C25.0233 30.8751 25.8246 30.8055 26.5258 30.6664C27.2269 30.5134 27.8136 30.277 28.2858 29.9571C28.758 29.6372 29.1157 29.2199 29.359 28.7053C29.6165 28.1767 29.7453 27.5439 29.7453 26.8067C29.7453 26.0556 29.638 25.4158 29.4234 24.8872C29.223 24.3587 28.9082 23.9345 28.479 23.6146C28.0497 23.2947 27.5059 23.0652 26.8477 22.9261C26.1895 22.7731 25.4097 22.6966 24.5082 22.6966H19.8935ZM24.5082 17.9397C26.5973 17.9397 28.3788 18.1344 29.8526 18.5239C31.3408 18.8994 32.5499 19.4419 33.48 20.1512C34.4244 20.8467 35.1112 21.6951 35.5405 22.6966C35.9698 23.698 36.1844 24.8177 36.1844 26.0556C36.1844 26.7511 36.0771 27.4187 35.8625 28.0585C35.6621 28.6983 35.3402 29.3034 34.8966 29.8736C34.4673 30.43 33.9093 30.9377 33.2224 31.3967C32.5356 31.8557 31.72 32.2451 30.7756 32.565C32.8933 33.0518 34.4602 33.8447 35.4761 34.9435C36.4921 36.0423 37 37.4679 37 39.2205C37 40.5001 36.7425 41.6893 36.2274 42.7881C35.7265 43.887 34.9896 44.8397 34.0166 45.6464C33.0436 46.4532 31.8416 47.086 30.4107 47.545C28.9941 47.9901 27.3629 48.2127 25.517 48.2127H13.4544V17.9397H24.5082Z" fill="#4996EC"/>
<path fill-rule="evenodd" clip-rule="evenodd" d="M27.3733 14.7529C27.3198 12.7302 26.9432 10.8571 26.2435 9.13366C25.4999 7.26764 24.4406 5.66119 23.0656 4.31429C21.7047 2.95336 20.0632 1.89408 18.141 1.13645C16.2189 0.378815 14.0863 0 11.7433 0H0V30.5367H10.8312V25.5911H6.35568V4.94565H11.7433C13.1744 4.94565 14.4511 5.18416 15.5735 5.66119C16.71 6.13821 17.671 6.81868 18.4567 7.70258C19.2424 8.58648 19.8457 9.66681 20.2666 10.9436C20.6428 12.0845 20.8508 13.3542 20.8908 14.7529H27.3733Z" fill="white"/>
</svg>
